# xmcd
#
# Track frame offsets:
#	150
#	9857
#	24292
#	39561
#	55383
#	70733
#	85156
#	98043
#	113832
#	129380
#	147153
#	156878
#	175680
#	184878
#	198180
#	209964
#	225860
#	240401
#	253470
#	262968
#	275718
#	285923
#	299511
#	312811
#
# Disc length: 4364 seconds
#
# Revision: 0
# Processed by: cddbd v1.5.2PL0 Copyright (c) Steve Scherf et al.
# Submitted via: EasyCDDAExtractor 16.0.9.1
#
DISCID=50110a18
DTITLE=Ray Charles - N-104 Ray Charles  The Complete Country And Westerns CD1
DYEAR=1900
DGENRE=
TTITLE0=Bye bye. love
TTITLE1=You don´t know me
TTITLE2=Half as much
TTITLE3=I love you so much it hurts
TTITLE4=Just a little lovin´
TTITLE5=Born to lose
TTITLE6=Worried mind
TTITLE7=It makes no difference now
TTITLE8=You win again
TTITLE9=Careless love
TTITLE10=Hey, good lookin´
TTITLE11=I can´t stop loving you
TTITLE12=Don´t tell me your troubles
TTITLE13=You are my sunshine
TTITLE14=Someday (You´ll want me to wan
TTITLE15=Your cheating heart
TTITLE16=Mignight
TTITLE17=Take these chains from my hear
TTITLE18=Oh, lonesome me
TTITLE19=Making believe
TTITLE20=I´ll never stand in your way
TTITLE21=Teardrops in my heart
TTITLE22=No letter today
TTITLE23=Hang your head in shame
EXTD=
EXTT0=
EXTT1=
EXTT2=
EXTT3=
EXTT4=
EXTT5=
EXTT6=
EXTT7=
EXTT8=
EXTT9=
EXTT10=
EXTT11=
EXTT12=
EXTT13=
EXTT14=
EXTT15=
EXTT16=
EXTT17=
EXTT18=
EXTT19=
EXTT20=
EXTT21=
EXTT22=
EXTT23=
PLAYORDER=
